<svg width="13" height="14" viewBox="0 0 13 14" class="width-full height-auto" fill="none" xmlns="http://www.w3.org/2000/svg">
<path d="M3.50988 5.27C3.50988 5.36 4.97988 8.62 5.81988 10.49V5.49C5.81853 5.46422 5.82243 5.43843 5.83137 5.41422C5.84031 5.39 5.85409 5.36785 5.87187 5.34914C5.88965 5.33042 5.91106 5.31552 5.93479 5.30536C5.95852 5.29519 5.98407 5.28996 6.00988 5.29H7.65988C7.71293 5.29 7.7638 5.31107 7.80131 5.34858C7.83881 5.38609 7.85988 5.43696 7.85988 5.49V10.49C8.53988 8.97 9.61988 6.49 10.0399 5.57C10.1399 5.33 10.2099 5.19 10.2199 5.16C10.2299 5.13 10.3299 4.9 10.3799 4.76C10.4851 4.39935 10.5389 4.02568 10.5399 3.65C10.542 3.25949 10.4812 2.8712 10.3599 2.5C10.1098 1.77052 9.63799 1.13742 9.01047 0.689186C8.38294 0.240956 7.63105 0 6.85988 0C6.08872 0 5.33683 0.240956 4.7093 0.689186C4.08178 1.13742 3.60999 1.77052 3.35988 2.5C3.13329 3.22265 3.13329 3.99735 3.35988 4.72C3.38933 4.90833 3.43964 5.0928 3.50988 5.27ZM5.99988 2.68C6.24494 2.47405 6.55478 2.36114 6.87488 2.36114C7.19499 2.36114 7.50483 2.47405 7.74988 2.68C7.86311 2.77916 7.95248 2.90261 8.01135 3.04113C8.07023 3.17964 8.09707 3.32966 8.08988 3.48C8.09555 3.62868 8.06797 3.77675 8.00915 3.91342C7.95033 4.05009 7.86176 4.17191 7.74988 4.27C7.50236 4.47054 7.19345 4.57997 6.87488 4.57997C6.55632 4.57997 6.24741 4.47054 5.99988 4.27C5.88987 4.16884 5.80205 4.04596 5.74198 3.90911C5.68191 3.77227 5.65089 3.62445 5.65089 3.475C5.65089 3.32555 5.68191 3.17773 5.74198 3.04089C5.80205 2.90404 5.88987 2.78116 5.99988 2.68Z" fill="#6366F1"/>
<path d="M6.82973 12.23C3.37973 12.23 0.719727 12.42 0.719727 12.67C0.719727 12.92 3.45973 13.18 6.82973 13.18C10.1997 13.18 12.9997 12.93 12.9997 12.67C12.9997 12.41 10.4497 12.23 6.82973 12.23Z" fill="#111827"/>
</svg>
