<svg width="56" height="14" viewBox="0 0 56 14" class="width-full height-auto" fill="none" xmlns="http://www.w3.org/2000/svg">
<path d="M2.05 2.84998H0V11.27H2.05V2.84998Z" fill="#111827"/>
<path d="M8.05007 4.92996C7.50064 4.64481 6.88902 4.5005 6.27007 4.50996C5.65736 4.49916 5.05188 4.64365 4.51007 4.92996C3.98445 5.19831 3.54964 5.61572 3.26007 6.12996C2.94058 6.67521 2.77793 7.29812 2.79007 7.92996C2.77492 8.5691 2.93024 9.20074 3.24007 9.75996C3.53156 10.2617 3.96229 10.6681 4.48007 10.93C5.02906 11.2163 5.64099 11.3607 6.26007 11.35C6.86557 11.3533 7.46276 11.2091 8.00007 10.93C8.53508 10.6649 8.9828 10.2519 9.29007 9.73996C9.608 9.19042 9.77047 8.56476 9.76007 7.92996C9.77121 7.29002 9.61249 6.65857 9.30007 6.09996C8.99983 5.6017 8.56708 5.19664 8.05007 4.92996ZM7.26007 9.15996C7.13199 9.29664 6.97705 9.40538 6.80497 9.47938C6.63289 9.55337 6.44738 9.59102 6.26007 9.58996C6.07194 9.59689 5.88462 9.5619 5.71167 9.48753C5.53872 9.41316 5.38447 9.30127 5.26007 9.15996C4.98525 8.81128 4.84982 8.3729 4.88007 7.92996C4.84672 7.4803 4.99024 7.03538 5.28007 6.68996C5.40578 6.54904 5.55985 6.43627 5.73218 6.35906C5.90452 6.28184 6.09123 6.24193 6.28007 6.24193C6.46892 6.24193 6.65563 6.28184 6.82796 6.35906C7.0003 6.43627 7.15437 6.54904 7.28007 6.68996C7.56369 7.03788 7.70006 7.48288 7.66007 7.92996C7.68871 8.376 7.54559 8.81609 7.26007 9.15996Z" fill="#111827"/>
<path d="M13.7601 6.22999C13.9992 6.21867 14.235 6.28861 14.4293 6.42842C14.6236 6.56824 14.7648 6.76969 14.8301 6.99999H17.0001C16.8718 6.26684 16.4807 5.60558 15.9001 5.13999C15.2966 4.68539 14.5551 4.45234 13.8001 4.47999C13.1879 4.47833 12.5855 4.63324 12.0501 4.92999C11.5466 5.20769 11.1335 5.62422 10.8601 6.12999C10.5737 6.68613 10.4294 7.30452 10.4401 7.92999C10.4248 8.56552 10.5692 9.19472 10.8601 9.75999C11.1381 10.2547 11.5507 10.6604 12.0501 10.93C12.5883 11.2163 13.1905 11.3608 13.8001 11.35C14.5575 11.3719 15.2993 11.1317 15.9001 10.67C16.4692 10.2114 16.8586 9.56706 17.0001 8.84999H14.8301C14.7646 9.07938 14.6229 9.27962 14.4284 9.41776C14.2339 9.5559 13.9982 9.6237 13.7601 9.60999C13.5863 9.61766 13.4133 9.58245 13.2563 9.50746C13.0994 9.43247 12.9633 9.32001 12.8601 9.17999C12.6166 8.81014 12.4975 8.37222 12.5201 7.92999C12.4916 7.48714 12.6112 7.0474 12.8601 6.67999C12.9617 6.53693 13.0969 6.42107 13.2539 6.34259C13.4108 6.26412 13.5847 6.22545 13.7601 6.22999Z" fill="#111827"/>
<path d="M22.7101 5.51997C22.5131 5.19753 22.2288 4.93749 21.8901 4.76997C21.5087 4.56789 21.0815 4.46798 20.6501 4.47997C20.1203 4.47417 19.5999 4.61989 19.1501 4.89997C18.6908 5.19216 18.3234 5.60812 18.0901 6.09997C17.8172 6.67056 17.6836 7.29771 17.7001 7.92997C17.6874 8.55865 17.8209 9.18169 18.0901 9.74997C18.3278 10.2336 18.6946 10.642 19.1501 10.93C19.5955 11.2128 20.1125 11.362 20.6401 11.36C21.071 11.3672 21.497 11.2675 21.8801 11.07C22.2164 10.8907 22.5019 10.6292 22.7101 10.31V11.26H24.7601V4.56997H22.7101V5.51997ZM22.2901 9.12997C22.1564 9.27161 21.9952 9.38445 21.8164 9.46158C21.6376 9.53871 21.4448 9.57849 21.2501 9.57849C21.0553 9.57849 20.8626 9.53871 20.6838 9.46158C20.505 9.38445 20.3438 9.27161 20.2101 9.12997C19.9192 8.79928 19.7655 8.37012 19.7801 7.92997C19.7597 7.48593 19.9141 7.05157 20.2101 6.71997C20.3454 6.57898 20.5087 6.46789 20.6896 6.39383C20.8704 6.31977 21.0648 6.28439 21.2601 6.28997C21.4481 6.29019 21.6341 6.32941 21.8062 6.40514C21.9783 6.48087 22.1329 6.59148 22.2601 6.72997C22.5609 7.05595 22.7224 7.48658 22.7101 7.92997C22.7327 8.36954 22.5819 8.80043 22.2901 9.12997Z" fill="#111827"/>
<path d="M28.3 6.03001C28.16 5.72001 28.07 5.52001 28.05 5.49001C27.7711 4.91333 27.6274 4.2806 27.63 3.64001C27.6223 3.21561 27.6866 2.79297 27.82 2.39001H26.26V11.27H28.26C28.31 9.44001 28.4 6.22001 28.3 6.03001Z" fill="#111827"/>
<path d="M40.16 6.39V4.75H35.88C35.8296 4.95955 35.7592 5.1638 35.67 5.36L35.38 6.05C35.32 6.19 35.26 6.32 35.19 6.45H37.8L35 9.82V11.45H40.2V9.76H37.3L40.16 6.39Z" fill="#111827"/>
<path d="M46.0501 5.06994C45.5105 4.79747 44.9145 4.65552 44.3101 4.65552C43.7056 4.65552 43.1096 4.79747 42.5701 5.06994C42.0564 5.34073 41.6351 5.75853 41.3601 6.26994C41.0704 6.83207 40.926 7.45774 40.9401 8.08994C40.9196 8.73158 41.0715 9.36698 41.3801 9.92994C41.6535 10.4357 42.0666 10.8522 42.5701 11.1299C43.0672 11.3842 43.6138 11.5266 44.1718 11.5474C44.7297 11.5681 45.2855 11.4666 45.8001 11.2499C46.214 11.0618 46.5816 10.7853 46.877 10.4397C47.1725 10.0942 47.3885 9.68803 47.5101 9.24994H45.3201C45.2319 9.45431 45.0827 9.62644 44.893 9.74279C44.7032 9.85914 44.4822 9.91403 44.2601 9.89994C44.0988 9.90585 43.9381 9.87972 43.787 9.82308C43.636 9.76644 43.4976 9.6804 43.3801 9.56994C43.2498 9.43858 43.1472 9.28237 43.0785 9.11057C43.0098 8.93878 42.9763 8.75493 42.9801 8.56994H47.6201C47.6201 8.36994 47.6201 8.16994 47.6201 7.96994C47.6309 7.35601 47.4828 6.74971 47.1901 6.20994C46.9241 5.73081 46.5292 5.33586 46.0501 5.06994ZM43.0001 7.44994C43.0333 7.12096 43.1906 6.81701 43.4401 6.59994C43.6828 6.39554 43.9929 6.28863 44.3101 6.29994C44.6376 6.29148 44.9572 6.40156 45.2101 6.60994C45.3302 6.71374 45.4257 6.84296 45.4897 6.98825C45.5537 7.13354 45.5846 7.29125 45.5801 7.44994H43.0001Z" fill="#111827"/>
<path d="M53.3401 2.57007V5.68007C53.1265 5.36072 52.8336 5.1023 52.4901 4.93007C52.1129 4.74812 51.6989 4.65572 51.2801 4.66007C50.7503 4.65427 50.2299 4.79999 49.7801 5.08007C49.3208 5.37225 48.9534 5.78822 48.7201 6.28007C48.4503 6.8446 48.3168 7.46454 48.3301 8.09007C48.3143 8.72547 48.4479 9.35572 48.7201 9.93007C48.9532 10.4247 49.3205 10.8439 49.7801 11.1401C50.229 11.4232 50.7494 11.5723 51.2801 11.5701C51.7113 11.5798 52.138 11.48 52.5201 11.2801C52.8615 11.1071 53.1461 10.8399 53.3401 10.5101V11.5101H55.4001V2.57007H53.3401ZM52.9201 9.31007C52.7864 9.45171 52.6252 9.56455 52.4464 9.64168C52.2676 9.71881 52.0749 9.75859 51.8801 9.75859C51.6854 9.75859 51.4927 9.71881 51.3138 9.64168C51.135 9.56455 50.9738 9.45171 50.8401 9.31007C50.5516 8.97073 50.4016 8.53509 50.4201 8.09007C50.4137 7.66508 50.5631 7.25246 50.8401 6.93007C50.9696 6.79526 51.1249 6.68775 51.2966 6.6139C51.4684 6.54005 51.6532 6.50134 51.8401 6.50007C52.028 6.50148 52.2136 6.54124 52.3855 6.61689C52.5575 6.69255 52.7122 6.80252 52.8401 6.94007C53.1325 7.27322 53.2832 7.7074 53.2601 8.15007C53.2946 8.56553 53.1734 8.97898 52.9201 9.31007Z" fill="#111827"/>
<path d="M28.5099 5.27C28.5099 5.36 29.9799 8.62 30.8199 10.49V5.49C30.8185 5.46422 30.8224 5.43843 30.8314 5.41422C30.8403 5.39 30.8541 5.36785 30.8719 5.34914C30.8897 5.33042 30.9111 5.31552 30.9348 5.30536C30.9585 5.29519 30.9841 5.28996 31.0099 5.29H32.6599C32.7129 5.29 32.7638 5.31107 32.8013 5.34858C32.8388 5.38609 32.8599 5.43696 32.8599 5.49V10.49C33.5399 8.97 34.6199 6.49 35.0399 5.57C35.1399 5.33 35.2099 5.19 35.2199 5.16C35.2299 5.13 35.3299 4.9 35.3799 4.76C35.4851 4.39935 35.5389 4.02568 35.5399 3.65C35.542 3.25949 35.4812 2.8712 35.3599 2.5C35.1098 1.77052 34.638 1.13742 34.0105 0.689186C33.3829 0.240956 32.6311 0 31.8599 0C31.0887 0 30.3368 0.240956 29.7093 0.689186C29.0818 1.13742 28.61 1.77052 28.3599 2.5C28.1333 3.22265 28.1333 3.99735 28.3599 4.72C28.3893 4.90833 28.4396 5.0928 28.5099 5.27ZM30.9999 2.68C31.2449 2.47405 31.5548 2.36114 31.8749 2.36114C32.195 2.36114 32.5048 2.47405 32.7499 2.68C32.8631 2.77916 32.9525 2.90261 33.0114 3.04113C33.0702 3.17964 33.0971 3.32966 33.0899 3.48C33.0956 3.62868 33.068 3.77675 33.0092 3.91342C32.9503 4.05009 32.8618 4.17191 32.7499 4.27C32.5024 4.47054 32.1935 4.57997 31.8749 4.57997C31.5563 4.57997 31.2474 4.47054 30.9999 4.27C30.8899 4.16884 30.8021 4.04596 30.742 3.90911C30.6819 3.77227 30.6509 3.62445 30.6509 3.475C30.6509 3.32555 30.6819 3.17773 30.742 3.04089C30.8021 2.90404 30.8899 2.78116 30.9999 2.68Z" fill="#6366F1"/>
<path d="M31.83 12.23C28.38 12.23 25.72 12.42 25.72 12.67C25.72 12.92 28.46 13.18 31.83 13.18C35.2 13.18 38 12.93 38 12.67C38 12.41 35.45 12.23 31.83 12.23Z" fill="#111827"/>
</svg>
