<svg width="282" height="108" viewBox="0 0 282 108" fill="none" xmlns="http://www.w3.org/2000/svg">
<path d="M281.5 0L268.4 48.9H219.5L232.6 0H281.5Z" fill="#FFA300"/>
<path d="M135.6 0L145.9 36H146.1L155.7 0H165.5L152.4 48.9H140.1L129.6 12.3H129.4L119 48.9H106.7L93.6 0H103.4L113 36H113.2L123.5 0H135.6ZM0 48.9V0H39.7V9.5H9.9V19.7H38V28.8H9.9V39.4H39.7V48.9H0ZM49.1 48.9V39.4H74.6C79.9 39.4 82.1 37.2 82.1 34.7C82.1 32.4 80.9 30.6 77.5 30.2C75.5 30 64.2 28.5 61.9 28.2C53.5 27 48.8 21.4 48.8 14.2C48.8 5.7 54.8 0.2 64.5 0.1H64.8H86.5V9.6H64.5C60.8 9.6 58.5 11.4 58.5 14.5C58.5 16.1 59.6 18.1 63.6 18.7C64.8 18.9 76.2 20.3 78.3 20.6C87.4 21.7 91.8 28.1 91.8 34.9C91.8 44.2 84.7 49 74.6 49H49.1V48.9ZM170.4 48.9V0H210V9.5H180.2V19.7H208.3V28.8H180.2V39.4H210V48.9H170.4Z" fill="#001489"/>
<path d="M0 68V106.556H3.672V88.196H22.14V85.064H3.672V71.132H24.462V68H0Z" fill="#001489"/>
<path d="M49.4159 90.68H31.3799C31.5239 89.42 31.8119 88.196 32.2439 87.008C32.7119 85.784 33.3239 84.722 34.0799 83.822C34.8359 82.886 35.7539 82.148 36.8339 81.608C37.9139 81.032 39.1559 80.744 40.5599 80.744C41.9279 80.744 43.1519 81.032 44.2319 81.608C45.3119 82.148 46.2299 82.886 46.9859 83.822C47.7419 84.722 48.3179 85.766 48.7139 86.954C49.1459 88.142 49.3799 89.384 49.4159 90.68ZM31.3799 93.542H52.8179C52.8899 91.598 52.7099 89.69 52.2779 87.818C51.8459 85.91 51.1259 84.236 50.1179 82.796C49.1459 81.32 47.8679 80.132 46.2839 79.232C44.6999 78.332 42.7919 77.882 40.5599 77.882C38.3639 77.882 36.4559 78.314 34.8359 79.178C33.2519 80.006 31.9559 81.122 30.9479 82.526C29.9399 83.894 29.1839 85.46 28.6799 87.224C28.2119 88.988 27.9779 90.788 27.9779 92.624C27.9779 94.604 28.2119 96.494 28.6799 98.294C29.1839 100.058 29.9399 101.624 30.9479 102.992C31.9559 104.324 33.2519 105.386 34.8359 106.178C36.4559 106.934 38.3639 107.312 40.5599 107.312C44.0879 107.312 46.8059 106.448 48.7139 104.72C50.6579 102.992 51.9899 100.544 52.7099 97.376H49.3079C48.7679 99.536 47.7959 101.264 46.3919 102.56C44.9879 103.856 43.0439 104.504 40.5599 104.504C38.9399 104.504 37.5539 104.162 36.4019 103.478C35.2499 102.794 34.2959 101.93 33.5399 100.886C32.7839 99.842 32.2259 98.672 31.8659 97.376C31.5419 96.044 31.3799 94.766 31.3799 93.542Z" fill="#001489"/>
<path d="M58.4099 78.692V106.556H61.8119V91.706C61.8119 90.23 62.0639 88.88 62.5679 87.656C63.0719 86.396 63.7739 85.316 64.6739 84.416C65.6099 83.516 66.7079 82.832 67.9679 82.364C69.2279 81.86 70.6319 81.644 72.1799 81.716V78.314C69.6599 78.206 67.4819 78.764 65.6459 79.988C63.8459 81.212 62.5139 82.958 61.6499 85.226H61.5419V78.692H58.4099Z" fill="#001489"/>
<path d="M77.3643 78.692V106.556H80.7663V90.302C80.8023 88.934 81.0183 87.674 81.4143 86.522C81.8463 85.334 82.4223 84.326 83.1423 83.498C83.8983 82.634 84.7983 81.968 85.8423 81.5C86.9223 80.996 88.1463 80.744 89.5143 80.744C90.8823 80.744 92.0163 80.96 92.9163 81.392C93.8523 81.824 94.5903 82.418 95.1303 83.174C95.6703 83.93 96.0483 84.83 96.2643 85.874C96.4803 86.882 96.5883 87.98 96.5883 89.168V106.556H99.9903V88.628C99.9903 86.972 99.8283 85.478 99.5043 84.146C99.1803 82.814 98.6223 81.698 97.8303 80.798C97.0383 79.862 95.9763 79.142 94.6443 78.638C93.3483 78.134 91.7283 77.882 89.7843 77.882C87.8043 77.882 85.9863 78.404 84.3303 79.448C82.6743 80.456 81.5223 81.806 80.8743 83.498H80.7663V78.692H77.3643Z" fill="#001489"/>
<path d="M104.64 78.692L113.604 106.556H117.33L124.134 83.12H124.242L131.1 106.556H134.826L143.79 78.692H140.172L133.044 102.56H132.936L126.132 78.692H122.298L115.494 102.56H115.386L108.258 78.692H104.64Z" fill="#001489"/>
<path d="M152.658 73.886H156.33V68.432H152.658V73.886ZM162.216 73.886H165.888V68.432H162.216V73.886ZM148.176 87.224H151.578C151.65 84.956 152.37 83.318 153.738 82.31C155.106 81.266 156.87 80.744 159.03 80.744C160.038 80.744 160.974 80.834 161.838 81.014C162.738 81.158 163.512 81.446 164.16 81.878C164.844 82.31 165.366 82.904 165.726 83.66C166.122 84.38 166.32 85.316 166.32 86.468C166.32 87.224 166.212 87.836 165.996 88.304C165.816 88.772 165.546 89.15 165.186 89.438C164.826 89.69 164.376 89.87 163.836 89.978C163.296 90.086 162.666 90.176 161.946 90.248C160.11 90.464 158.292 90.698 156.492 90.95C154.728 91.166 153.126 91.562 151.686 92.138C150.282 92.714 149.148 93.56 148.284 94.676C147.42 95.756 146.988 97.268 146.988 99.212C146.988 100.616 147.222 101.84 147.69 102.884C148.194 103.892 148.86 104.738 149.688 105.422C150.552 106.07 151.542 106.538 152.658 106.826C153.81 107.15 155.034 107.312 156.33 107.312C157.698 107.312 158.868 107.186 159.84 106.934C160.848 106.682 161.73 106.322 162.486 105.854C163.278 105.386 163.98 104.81 164.592 104.126C165.24 103.406 165.87 102.596 166.482 101.696H166.59C166.59 102.416 166.626 103.082 166.698 103.694C166.806 104.27 167.004 104.774 167.292 105.206C167.58 105.638 167.976 105.98 168.48 106.232C169.02 106.448 169.722 106.556 170.586 106.556C171.054 106.556 171.432 106.538 171.72 106.502C172.044 106.466 172.404 106.412 172.8 106.34V103.478C172.476 103.622 172.116 103.694 171.72 103.694C170.388 103.694 169.722 103.01 169.722 101.642V86.846C169.722 84.974 169.416 83.462 168.804 82.31C168.192 81.122 167.4 80.204 166.428 79.556C165.456 78.908 164.358 78.476 163.134 78.26C161.91 78.008 160.686 77.882 159.462 77.882C157.842 77.882 156.366 78.062 155.034 78.422C153.702 78.782 152.532 79.34 151.524 80.096C150.552 80.852 149.778 81.824 149.202 83.012C148.626 84.2 148.284 85.604 148.176 87.224ZM166.32 91.328V95.756C166.32 97.124 166.05 98.348 165.51 99.428C165.006 100.508 164.304 101.426 163.404 102.182C162.54 102.938 161.514 103.514 160.326 103.91C159.138 104.306 157.896 104.504 156.6 104.504C155.808 104.504 155.034 104.378 154.278 104.126C153.522 103.874 152.856 103.514 152.28 103.046C151.704 102.542 151.236 101.966 150.876 101.318C150.552 100.634 150.39 99.86 150.39 98.996C150.39 97.628 150.786 96.584 151.578 95.864C152.406 95.108 153.45 94.532 154.71 94.136C155.97 93.74 157.356 93.452 158.868 93.272C160.416 93.056 161.91 92.822 163.35 92.57C163.818 92.498 164.358 92.372 164.97 92.192C165.582 92.012 165.996 91.724 166.212 91.328H166.32Z" fill="#001489"/>
<path d="M177.528 78.692V106.556H180.93V91.706C180.93 90.23 181.182 88.88 181.686 87.656C182.19 86.396 182.892 85.316 183.792 84.416C184.728 83.516 185.826 82.832 187.086 82.364C188.346 81.86 189.75 81.644 191.298 81.716V78.314C188.778 78.206 186.6 78.764 184.764 79.988C182.964 81.212 181.632 82.958 180.768 85.226H180.66V78.692H177.528Z" fill="#001489"/>
<path d="M195.587 78.692V106.556H198.989V91.004C198.989 89.528 199.151 88.178 199.475 86.954C199.799 85.694 200.285 84.614 200.933 83.714C201.617 82.778 202.481 82.058 203.525 81.554C204.605 81.014 205.865 80.744 207.305 80.744C208.385 80.744 209.303 80.924 210.059 81.284C210.815 81.644 211.409 82.148 211.841 82.796C212.309 83.408 212.633 84.146 212.813 85.01C213.029 85.838 213.137 86.72 213.137 87.656V106.556H216.539V90.788C216.539 89.492 216.647 88.25 216.863 87.062C217.115 85.838 217.529 84.758 218.105 83.822C218.681 82.886 219.455 82.148 220.427 81.608C221.399 81.032 222.623 80.744 224.099 80.744C226.547 80.744 228.257 81.356 229.229 82.58C230.201 83.768 230.687 85.514 230.687 87.818V106.556H234.089V87.656C234.089 81.14 231.011 77.882 224.855 77.882C223.019 77.882 221.291 78.332 219.671 79.232C218.051 80.132 216.827 81.5 215.999 83.336C215.495 81.5 214.487 80.132 212.975 79.232C211.499 78.332 209.843 77.882 208.007 77.882C205.739 77.882 203.867 78.368 202.391 79.34C200.951 80.312 199.781 81.662 198.881 83.39H198.719V78.692H195.587Z" fill="#001489"/>
<path d="M261.629 90.68H243.593C243.737 89.42 244.025 88.196 244.457 87.008C244.925 85.784 245.537 84.722 246.293 83.822C247.049 82.886 247.967 82.148 249.047 81.608C250.127 81.032 251.369 80.744 252.773 80.744C254.141 80.744 255.365 81.032 256.445 81.608C257.525 82.148 258.443 82.886 259.199 83.822C259.955 84.722 260.531 85.766 260.927 86.954C261.359 88.142 261.593 89.384 261.629 90.68ZM243.593 93.542H265.031C265.103 91.598 264.923 89.69 264.491 87.818C264.059 85.91 263.339 84.236 262.331 82.796C261.359 81.32 260.081 80.132 258.497 79.232C256.913 78.332 255.005 77.882 252.773 77.882C250.577 77.882 248.669 78.314 247.049 79.178C245.465 80.006 244.169 81.122 243.161 82.526C242.153 83.894 241.397 85.46 240.893 87.224C240.425 88.988 240.191 90.788 240.191 92.624C240.191 94.604 240.425 96.494 240.893 98.294C241.397 100.058 242.153 101.624 243.161 102.992C244.169 104.324 245.465 105.386 247.049 106.178C248.669 106.934 250.577 107.312 252.773 107.312C256.301 107.312 259.019 106.448 260.927 104.72C262.871 102.992 264.203 100.544 264.923 97.376H261.521C260.981 99.536 260.009 101.264 258.605 102.56C257.201 103.856 255.257 104.504 252.773 104.504C251.153 104.504 249.767 104.162 248.615 103.478C247.463 102.794 246.509 101.93 245.753 100.886C244.997 99.842 244.439 98.672 244.079 97.376C243.755 96.044 243.593 94.766 243.593 93.542Z" fill="#001489"/>
</svg>
